<svg xmlns="http://www.w3.org/2000/svg" viewBox="0 0 512 512">
  <path fill="#000000" d="M177.1 228.6L207.9 320h96.5l29.62-91.38L256 172.1L177.1 228.6zM255.1 0C114.6 0 .0001 114.6 .0001 256S114.6 512 256 512s255.1-114.6 255.1-255.1S397.4 0 255.1 0zM416.6 360.9l-85.4-1.297l-25.15 81.59C290.1 445.5 273.4 448 256 448s-34.09-2.523-50.09-6.859l-25.15-81.59l-85.4 1.297c-18.12-27.66-29.15-60.27-30.88-95.31L137.8 222.4L108.5 142.5C134.2 110.2 171.8 87.03 213.7 78.66L256 126.9l42.3-48.2c41.96 8.375 79.47 31.53 105.2 63.88l-29.26 79.88l73.3 43.04C445.8 300.6 434.8 333.3 416.6 360.9z"/>
</svg>